<svg width="934" height="873" viewBox="0 0 934 873" fill="none" xmlns="http://www.w3.org/2000/svg">
<path d="M318.337 40.2048C198.401 118.129 179.815 265.479 98.5871 374.184C70.3109 412.009 33.7742 445.862 14.7116 487.824C-29.053 583.873 31.1796 692.823 111.799 769.109C150.241 805.501 195.144 838.842 249.473 854.181C291.252 865.977 336.049 866.469 380.025 866.776L1150.47 872.92C1236.49 873.595 1332.07 871.158 1393.92 819.673C1436.54 784.223 1453.86 732.451 1468.55 683.034C1486.61 622.313 1502.97 556.369 1474.88 498.535C1442.79 432.366 1361.64 394.868 1311.23 337.771C1229.42 245.266 1231.3 105.35 1127.12 31.5011C1078.48 -2.96583 1014.31 -16.4823 951.771 -23.2405C833.874 -35.9992 722.199 -11.9153 606.42 -15.274C507.454 -18.1411 400.438 -13.1441 318.337 40.2048Z" fill="#F96900"/>
</svg>
